<svg width="396" height="379" xmlns="http://www.w3.org/2000/svg" id="rkmgxFVcvtM"><style>@-webkit-keyframes rJjxgKNqvYf_Animation{0%,33.33%{opacity:0}40%,to{opacity:1}}@keyframes rJjxgKNqvYf_Animation{0%,33.33%{opacity:0}40%,to{opacity:1}}@-webkit-keyframes r1WbltV9wKf_Animation{0%,20%{opacity:0}26.67%,to{opacity:1}}@keyframes r1WbltV9wKf_Animation{0%,20%{opacity:0}26.67%,to{opacity:1}}@-webkit-keyframes H1e-xtN9wtM_Animation{0%,13.33%{opacity:0}20%,to{opacity:1}}@keyframes H1e-xtN9wtM_Animation{0%,13.33%{opacity:0}20%,to{opacity:1}}@-webkit-keyframes SJdxlt4qPKz_Animation{0%,13.33%{opacity:0}46.67%,to{opacity:1}}@keyframes SJdxlt4qPKz_Animation{0%,13.33%{opacity:0}46.67%,to{opacity:1}}@-webkit-keyframes HJplgYE9PFz_Animation{0%{opacity:0}33.33%,to{opacity:1}}@keyframes HJplgYE9PFz_Animation{0%{opacity:0}33.33%,to{opacity:1}}@-webkit-keyframes SJdxlt4qPKz_r1HsSqwtG_Animation{0%,to{-webkit-transform:rotate(180deg);transform:rotate(180deg)}}@keyframes SJdxlt4qPKz_r1HsSqwtG_Animation{0%,to{-webkit-transform:rotate(180deg);transform:rotate(180deg)}}@-webkit-keyframes SJdxlt4qPKz_HJOFrcwtf_Animation{0%,13.33%{-webkit-transform:translate(250px,140px);transform:translate(250px,140px)}46.67%,to{-webkit-transform:translate(195px,140px);transform:translate(195px,140px)}}@keyframes SJdxlt4qPKz_HJOFrcwtf_Animation{0%,13.33%{-webkit-transform:translate(250px,140px);transform:translate(250px,140px)}46.67%,to{-webkit-transform:translate(195px,140px);transform:translate(195px,140px)}}@-webkit-keyframes HJplgYE9PFz_S1CnE9wYf_Animation{0%{-webkit-transform:translate(-30px,10px);transform:translate(-30px,10px)}33.33%,to{-webkit-transform:translate(30px,10px);transform:translate(30px,10px)}}@keyframes HJplgYE9PFz_S1CnE9wYf_Animation{0%{-webkit-transform:translate(-30px,10px);transform:translate(-30px,10px)}33.33%,to{-webkit-transform:translate(30px,10px);transform:translate(30px,10px)}}@-webkit-keyframes r1VllYEcDFG_Hkc545Ptz_Animation{0%,to{-webkit-transform:translate(90px,90px);transform:translate(90px,90px)}}@keyframes r1VllYEcDFG_Hkc545Ptz_Animation{0%,to{-webkit-transform:translate(90px,90px);transform:translate(90px,90px)}}#rkmgxFVcvtM *{-webkit-animation-duration:1.5s;animation-duration:1.5s;-webkit-animation-iteration-count:infinite;animation-iteration-count:infinite;-webkit-animation-timing-function:cubic-bezier(0,0,1,1);animation-timing-function:cubic-bezier(0,0,1,1);transform-box:fill-box;-webkit-transform-origin:50% 50%;transform-origin:50% 50%}#r1VllYEcDFG{stroke:none;stroke-width:1;fill:none}#rkIxgKE5DtM{-webkit-transform:translate(180.5,px,173px) rotate(-11deg) translate(-180.5,px,-173px) translate(67,px,82px);transform:translate(180.5,px,173px) rotate(-11deg) translate(-180.5,px,-173px) translate(67,px,82px);fill-opacity:.25;fill:#d8d8d8}#SJdxlt4qPKz{-webkit-transform:translate(232.5,px,198px) scale(-1,,1) translate(-232.5,px,-198px) translate(187,px,152px);transform:translate(232.5,px,198px) scale(-1,,1) translate(-232.5,px,-198px) translate(187,px,152px);-webkit-animation-name:SJdxlt4qPKz_Animation;animation-name:SJdxlt4qPKz_Animation;-webkit-transform-origin:undefined;transform-origin:undefined}#HyKglK4cwYf{-webkit-transform:translate(.145299,px,.316239px);transform:translate(.145299,px,.316239px)}#SyceltE5vFG{fill:#393b56}#rJjxgKNqvYf{fill:#fff;-webkit-animation-name:rJjxgKNqvYf_Animation;animation-name:rJjxgKNqvYf_Animation;-webkit-transform-origin:undefined;transform-origin:undefined}#HJngltE5vtG{fill:#fff}#HJplgYE9PFz{-webkit-transform:translate(113,px,104px);transform:translate(113,px,104px);-webkit-animation-name:HJplgYE9PFz_Animation;animation-name:HJplgYE9PFz_Animation;-webkit-transform-origin:undefined;transform-origin:undefined}#S1JbetV5wYz{stroke:#393b56;stroke-width:3;fill:#fff}#H1e-xtN9wtM{fill:#393b56;-webkit-animation-name:H1e-xtN9wtM_Animation;animation-name:H1e-xtN9wtM_Animation;-webkit-transform-origin:undefined;transform-origin:undefined}#r1WbltV9wKf{-webkit-animation-name:r1WbltV9wKf_Animation;animation-name:r1WbltV9wKf_Animation}#Skf-gtN5vtf,#r1WbltV9wKf{fill:#393b56;-webkit-transform-origin:undefined;transform-origin:undefined}#Sk7ZxYV9DKG{-webkit-transform:translate(112,px,88px);transform:translate(112,px,88px)}#HJplgYE9PFz_S1CnE9wYf,#r1VllYEcDFG_Hkc545Ptz{-webkit-animation-name:r1VllYEcDFG_Hkc545Ptz_Animation;animation-name:r1VllYEcDFG_Hkc545Ptz_Animation;-webkit-transform-origin:undefined;transform-origin:undefined}#HJplgYE9PFz_S1CnE9wYf{-webkit-animation-name:HJplgYE9PFz_S1CnE9wYf_Animation;animation-name:HJplgYE9PFz_S1CnE9wYf_Animation;-webkit-animation-timing-function:cubic-bezier(0,0,.58,1);animation-timing-function:cubic-bezier(0,0,.58,1)}#SJdxlt4qPKz_HJOFrcwtf,#SJdxlt4qPKz_r1HsSqwtG{-webkit-animation-name:SJdxlt4qPKz_HJOFrcwtf_Animation;animation-name:SJdxlt4qPKz_HJOFrcwtf_Animation;-webkit-transform-origin:undefined;transform-origin:undefined}#SJdxlt4qPKz_r1HsSqwtG{-webkit-animation-name:SJdxlt4qPKz_r1HsSqwtG_Animation;animation-name:SJdxlt4qPKz_r1HsSqwtG_Animation}</style><g id="r1VllYEcDFG_Hkc545Ptz" data-animator-group="true" data-animator-type="0"><g id="r1VllYEcDFG" fill-rule="evenodd"><g id="ByHglFEqwKz"><g id="rkIxgKE5DtM"><path d="M98.132 40.992C90.76 44.356 33.11-7.241 8.674 5.107c-24.434 12.349 10.648 66.748 9.35 71.263-1.297 4.516 27.959 48.858 25.524 52.31-2.435 3.453 18.45 33.105 9.097 40.939-9.845 8.247 30.58 8.358 27.545 12.13-.893 1.11 17.673-37.657 17.942-37.148.27.509 45.78-.453 49.53 0 7.691.93 13.076 17.437 27.798 17.437 14.657 0 20.673-11.301 23.502-13.14 6.003-3.904 7.329-39.676 7.329-39.676s24.451-23.787 20.216-32.852c-14.404-30.83-43.213-9.097-48.014-25.27-4.655-15.68 20.399-27.61 14.657-42.202-5.742-14.592-25.784-3.465-26.282-3.79-28.555-18.701-31.082 18.7-68.736 35.884z" id="HkDxlF49DtG"/></g><g id="SJdxlt4qPKz_HJOFrcwtf" data-animator-group="true" data-animator-type="0"><g id="SJdxlt4qPKz_r1HsSqwtG" data-animator-group="true" data-animator-type="1"><g id="SJdxlt4qPKz"><g id="HyKglK4cwYf"><path d="M76.32 77.196c-14.563 14.42-36.28 16.454-54.016 6.136a2.922 2.922 0 0 0-3.539.448.958.958 0 0 0-.237.171c-5.847 4.486-13.244 6.256-17.042 6.256l1.637-.83c4.38-3.161 7.141-7.861 8.76-11.514.258-.62.302-1.26.15-1.859a2.984 2.984 0 0 0-.711-1.623C-4.472 56.713-3.652 29.796 13.22 13.09c17.628-17.454 46.302-17.454 63.908 0 17.65 17.453 16.82 46.652-.807 64.105z" id="SyceltE5vFG"/><ellipse id="rJjxgKNqvYf" cx="31.002" cy="44.909" rx="5.002" ry="4.909"/><ellipse id="HJngltE5vtG" cx="50.002" cy="44.909" rx="5.002" ry="4.909"/></g></g></g></g><g id="HJplgYE9PFz_S1CnE9wYf" data-animator-group="true" data-animator-type="0"><g id="HJplgYE9PFz"><g id="r1CxeFVcwFz"><path d="M93.015 16.081C82.72 5.71 69.062 0 54.505 0 39.95 0 26.29 5.709 15.995 16.081c-19.9 20.05-22.039 54.885-1.847 76.175-1.75 3.55-1.585 4.731-6.104 9.462-1.55 1.623-6.92 3.923-6.574 6.15.345 2.228 2.484 1.545 4.695 1.893 1.037.163 1.653-.116 3.45-.116 4.814 0 11.908-1.137 19.163-6.405a53.843 53.843 0 0 0 25.704 6.521c14.096 0 28.054-5.5 38.557-16.081C103.334 83.307 109 69.546 109 54.88c0-14.665-5.689-28.426-15.985-38.799z" id="S1JbetV5wYz"/><ellipse id="H1e-xtN9wtM" cx="56.536" cy="57.536" rx="6.536" ry="6.536"/><ellipse id="r1WbltV9wKf" cx="81.536" cy="57.536" rx="6.536" ry="6.536"/><ellipse id="Skf-gtN5vtf" cx="31.536" cy="57.536" rx="6.536" ry="6.536"/></g></g></g></g></g></g></svg>