<svg width="396" height="379" xmlns="http://www.w3.org/2000/svg" id="HkhGl6bjz"><style xmlns="http://www.w3.org/1999/xhtml">@-webkit-keyframes SJqnMxpWof_rJfXEaZif_Animation{0%,23.33%,68.89%{-webkit-transform:scale(1,1);transform:scale(1,1)}86.67%,to{-webkit-transform:scale(2,2);transform:scale(2,2)}}@keyframes SJqnMxpWof_rJfXEaZif_Animation{0%,23.33%,68.89%{-webkit-transform:scale(1,1);transform:scale(1,1)}86.67%,to{-webkit-transform:scale(2,2);transform:scale(2,2)}}@-webkit-keyframes r1RhGxTWsM_Animation{0%,23.33%{opacity:0}30%,to{opacity:1}}@keyframes r1RhGxTWsM_Animation{0%,23.33%{opacity:0}30%,to{opacity:1}}@-webkit-keyframes H1genMgT-sf_Animation{0%,36.67%{opacity:0}43.33%,to{opacity:1}}@keyframes H1genMgT-sf_Animation{0%,36.67%{opacity:0}43.33%,to{opacity:1}}@-webkit-keyframes r11l3GeTZiM_Animation{0%,30%{opacity:0}36.67%,to{opacity:1}}@keyframes r11l3GeTZiM_Animation{0%,30%{opacity:0}36.67%,to{opacity:1}}@-webkit-keyframes SJqnMxpWof_Animation{0%,10%,86.67%,to{opacity:0}23.33%,68.89%{opacity:1}}@keyframes SJqnMxpWof_Animation{0%,10%,86.67%,to{opacity:0}23.33%,68.89%{opacity:1}}@-webkit-keyframes SJqnMxpWof_HJ6Oe6WiM_Animation{0%,10%{-webkit-transform:translate(-50px,90px);transform:translate(-50px,90px)}23.33%{-webkit-transform:translate(70px,90px);transform:translate(70px,90px)}68.89%{-webkit-transform:translate(100px,90px);transform:translate(100px,90px)}86.67%,to{-webkit-transform:translate(80px,90px);transform:translate(80px,90px)}}@keyframes SJqnMxpWof_HJ6Oe6WiM_Animation{0%,10%{-webkit-transform:translate(-50px,90px);transform:translate(-50px,90px)}23.33%{-webkit-transform:translate(70px,90px);transform:translate(70px,90px)}68.89%{-webkit-transform:translate(100px,90px);transform:translate(100px,90px)}86.67%,to{-webkit-transform:translate(80px,90px);transform:translate(80px,90px)}}@-webkit-keyframes r1VhzeT-sf_Animation{0%,to{opacity:0}}@keyframes r1VhzeT-sf_Animation{0%,to{opacity:0}}@-webkit-keyframes r1VhzeT-sf_S11QZTWiM_Animation{0%{-webkit-transform:scale(4,4);transform:scale(4,4)}10%,to{-webkit-transform:scale(1,1);transform:scale(1,1)}}@keyframes r1VhzeT-sf_S11QZTWiM_Animation{0%{-webkit-transform:scale(4,4);transform:scale(4,4)}10%,to{-webkit-transform:scale(1,1);transform:scale(1,1)}}@-webkit-keyframes r1VhzeT-sf_S1hJbTWif_Animation{0%{-webkit-transform:rotate(180deg);transform:rotate(180deg)}10%,to{-webkit-transform:rotate(0deg);transform:rotate(0deg)}}@keyframes r1VhzeT-sf_S1hJbTWif_Animation{0%{-webkit-transform:rotate(180deg);transform:rotate(180deg)}10%,to{-webkit-transform:rotate(0deg);transform:rotate(0deg)}}@-webkit-keyframes r1VhzeT-sf_HkuIxTbjf_Animation{0%,10%,to{-webkit-transform:translate(70px,70px);transform:translate(70px,70px)}}@keyframes r1VhzeT-sf_HkuIxTbjf_Animation{0%,10%,to{-webkit-transform:translate(70px,70px);transform:translate(70px,70px)}}@-webkit-keyframes H1-2GxTWiG_BynmeabsG_Animation{0%,to{-webkit-transform:translate(70px,70px);transform:translate(70px,70px)}}@keyframes H1-2GxTWiG_BynmeabsG_Animation{0%,to{-webkit-transform:translate(70px,70px);transform:translate(70px,70px)}}#HkhGl6bjz *{-webkit-animation-duration:3s;animation-duration:3s;-webkit-animation-iteration-count:infinite;animation-iteration-count:infinite;-webkit-animation-timing-function:cubic-bezier(0,0,1,1);animation-timing-function:cubic-bezier(0,0,1,1);transform-box:fill-box;-webkit-transform-origin:50% 50%;transform-origin:50% 50%}#ryxhzeaWoM{stroke:none;stroke-width:1;fill:none}#rJGhze6Ziz{-webkit-transform:translate(170.878276,px,178.074076px) rotate(126deg) translate(-170.878276,px,-178.074076px) translate(25.378276,px,33.574076px);transform:translate(170.878276,px,178.074076px) rotate(126deg) translate(-170.878276,px,-178.074076px) translate(25.378276,px,33.574076px);fill-opacity:.25;fill:#d8d8d8}#rkQ3MxaWof{-webkit-transform:translate(145.918215,px,144.680681px) rotate(43deg) translate(-145.918215,px,-144.680681px);transform:translate(145.918215,px,144.680681px) rotate(43deg) translate(-145.918215,px,-144.680681px)}#SJqnMxpWof,#r1VhzeT-sf{-webkit-transform-origin:50% 50%;transform-origin:50% 50%;opacity:0}#r1VhzeT-sf{fill:#606276;-webkit-transform:translate(134,px,124px);transform:translate(134,px,124px);-webkit-animation-name:r1VhzeT-sf_Animation;animation-name:r1VhzeT-sf_Animation}#SJqnMxpWof{-webkit-transform:translate(75,px,132px);transform:translate(75,px,132px);-webkit-animation-name:SJqnMxpWof_Animation;animation-name:SJqnMxpWof_Animation}#BJohGlaWoz{stroke:#606276;stroke-width:5}#HJT3Mxpbsf,#HynnGgTZof{stroke:#606276;stroke-width:12}#HJT3Mxpbsf{stroke-width:5;fill:#fff}#H1genMgT-sf,#r11l3GeTZiM,#r1RhGxTWsM{fill:#606276;-webkit-transform-origin:50% 50%;transform-origin:50% 50%;opacity:0;-webkit-animation-name:r1RhGxTWsM_Animation;animation-name:r1RhGxTWsM_Animation}#H1genMgT-sf,#r11l3GeTZiM{-webkit-animation-name:r11l3GeTZiM_Animation;animation-name:r11l3GeTZiM_Animation}#H1genMgT-sf{-webkit-animation-name:H1genMgT-sf_Animation;animation-name:H1genMgT-sf_Animation}#H1-2GxTWiG_BynmeabsG,#r1VhzeT-sf_HkuIxTbjf{-webkit-transform:translate(70px,70px);transform:translate(70px,70px)}#H1-2GxTWiG_BynmeabsG{-webkit-transform-origin:50% 50%;transform-origin:50% 50%;-webkit-animation-name:H1-2GxTWiG_BynmeabsG_Animation;animation-name:H1-2GxTWiG_BynmeabsG_Animation}#r1VhzeT-sf_HkuIxTbjf{-webkit-animation-name:r1VhzeT-sf_HkuIxTbjf_Animation;animation-name:r1VhzeT-sf_HkuIxTbjf_Animation}#SJqnMxpWof_HJ6Oe6WiM,#r1VhzeT-sf_HkuIxTbjf,#r1VhzeT-sf_S1hJbTWif{-webkit-transform-origin:50% 50%;transform-origin:50% 50%}#SJqnMxpWof_HJ6Oe6WiM{-webkit-transform:translate(-50px,90px);transform:translate(-50px,90px);-webkit-animation-name:SJqnMxpWof_HJ6Oe6WiM_Animation;animation-name:SJqnMxpWof_HJ6Oe6WiM_Animation}#r1VhzeT-sf_S1hJbTWif{-webkit-animation-name:r1VhzeT-sf_S1hJbTWif_Animation;animation-name:r1VhzeT-sf_S1hJbTWif_Animation;-webkit-transform:rotate(180deg);transform:rotate(180deg)}#SJqnMxpWof_rJfXEaZif,#r1VhzeT-sf_S11QZTWiM{-webkit-animation-name:r1VhzeT-sf_S11QZTWiM_Animation;animation-name:r1VhzeT-sf_S11QZTWiM_Animation;-webkit-transform-origin:50% 50%;transform-origin:50% 50%;-webkit-transform:scale(4,4);transform:scale(4,4)}#SJqnMxpWof_rJfXEaZif{-webkit-animation-name:SJqnMxpWof_rJfXEaZif_Animation;animation-name:SJqnMxpWof_rJfXEaZif_Animation;-webkit-transform:scale(1,1);transform:scale(1,1)}</style><g id="ryxhzeaWoM" fill-rule="evenodd"><g id="H1-2GxTWiG_BynmeabsG" data-animator-group="true" data-animator-type="0"><g id="H1-2GxTWiG"><g id="rJGhze6Ziz"><path d="M130.55 94.786c-7.372 3.365-65.023-48.233-89.457-35.884-24.435 12.348 10.647 66.747 9.35 71.263-1.298 4.516 27.958 48.857 25.523 52.31-2.435 3.453 18.45 33.105 9.097 40.939-9.845 8.247 30.58 8.358 27.545 12.13-.893 1.11 17.673-37.657 17.943-37.148.269.508 45.78-.454 49.53 0 7.69.93 13.075 17.436 27.798 17.436 14.657 0 20.672-11.3 23.501-13.14 6.003-3.903 7.329-39.675 7.329-39.675s24.452-23.787 20.216-32.852c-14.404-30.83-43.212-9.097-48.014-25.27-4.655-15.68 20.399-27.61 14.657-42.203-5.742-14.591-25.784-3.465-26.281-3.79-28.556-18.7-31.083 18.7-68.736 35.884z" id="rkQ3MxaWof"/></g><g id="r1VhzeT-sf_HkuIxTbjf" data-animator-group="true" data-animator-type="0"><g id="r1VhzeT-sf_S1hJbTWif" data-animator-group="true" data-animator-type="1"><g id="r1VhzeT-sf_S11QZTWiM" data-animator-group="true" data-animator-type="2"><g id="r1VhzeT-sf"><g id="ryr3zlaZsf"><path id="HkI2zlTZoM" d="M107.399 86.27l45.536-43.242-28.4-29.881z"/><path id="B1DnMe6Zoz" d="M91.833 40.17l.864 2.695 11.343 35.393 13.91-59.374 1.06-4.522 1.004-4.277-.164-.038L79.499.6l-.15.63 11.62 36.245z"/><path id="SkdhMgpbif" d="M75.576 6.16l-1.511-4.718-.429-1.333-39.625 12.688 1.454 4.531 28.259 28.246 2.122 2.123 2.121 2.12 4.874 4.872 1.805 1.802 1.803 1.805 23.19 23.175.038-.121-11.09-34.585-.861-2.697-.862-2.694-9.773-30.491z"/><path d="M76.817 84.758a7.581 7.581 0 0 1 7.583 7.578 7.58 7.58 0 0 1-7.583 7.58 7.582 7.582 0 0 1-7.583-7.58 7.581 7.581 0 0 1 7.583-7.578zM29.411 15.104L0 44.5l51.856 51.833 2.121 2.12 2.121 2.12.903.902.65.65 2.711 2.712.577.575 2.133 2.133 1.808 1.806 2.024 2.023 1.89 1.888 1.889 1.886L73.532 118l9.109-9.107.605-.602 2.011-2.011 1.02-1.02 1.393-1.393 1.003-1.003.637-.638 5.402-5.396.276-.28 3.866-3.864 2.37-2.366 1.499-1.498.221-.224-1.067-1.065-1.088-1.09-2.04-2.035-24.173-24.166-1.803-1.8-1.802-1.801-3.707-3.705-2.12-2.12-2.122-2.12L37.15 22.838l-3.938-3.936-3.801-3.798z" id="S1FhMx6Wjz"/></g></g></g></g></g><g id="SJqnMxpWof_HJ6Oe6WiM" data-animator-group="true" data-animator-type="0"><g id="SJqnMxpWof_rJfXEaZif" data-animator-group="true" data-animator-type="2"><g id="SJqnMxpWof"><path d="M79.5 33.5l-75 78" id="BJohGlaWoz" stroke-linecap="square"/><path d="M30 85L.929 116" id="HynnGgTZof" stroke-linecap="square"/><circle id="HJT3Mxpbsf" cx="73.75" cy="45.25" r="45.25"/><ellipse id="r1RhGxTWsM" cx="54.002" cy="45.909" rx="5.002" ry="4.909"/><ellipse id="r11l3GeTZiM" cx="71.002" cy="45.909" rx="5.002" ry="4.909"/><ellipse id="H1genMgT-sf" cx="88.002" cy="45.909" rx="5.002" ry="4.909"/></g></g></g></g></g></g></svg>